<svg width="48" height="48" viewBox="0 0 48 48" fill="none" xmlns="http://www.w3.org/2000/svg">
<path d="M37.9821 4H18.0201C15.7981 4 14.0001 5.798 14.0001 8.02V19.294L4.59606 28.578C4.31429 28.8567 4.12166 29.2128 4.04262 29.6011C3.96358 29.9895 4.0017 30.3925 4.15212 30.7592C4.30255 31.1258 4.55851 31.4395 4.88752 31.6604C5.21653 31.8813 5.60376 31.9995 6.00006 32V42C6.00006 42.5304 6.21077 43.0391 6.58585 43.4142C6.96092 43.7893 7.46963 44 8.00006 44H40.0001C40.5305 44 41.0392 43.7893 41.4143 43.4142C41.7893 43.0391 42.0001 42.5304 42.0001 42V8.018C42.0001 5.798 40.2041 4 37.9821 4ZM21.8441 30.222V40H10.0001V28.864L15.9741 22.966L21.8441 28.972V30.222ZM26.0001 18H22.0001V14H26.0001V18ZM34.0001 34H30.0001V30H34.0001V34ZM34.0001 26H30.0001V22H34.0001V26ZM34.0001 18H30.0001V14H34.0001V18Z" fill="#109ED9"/>
<path d="M14 30H18V34H14V30Z" fill="#109ED9"/>
</svg>
