<svg width="36" height="37" viewBox="0 0 36 37" fill="none" xmlns="http://www.w3.org/2000/svg">
<path d="M16.1618 4.96186C16.2906 4.85659 16.4411 4.78121 16.6026 4.74113C16.7641 4.70106 16.9324 4.6973 17.0955 4.73011L28.3455 6.98011C28.6004 7.03107 28.8299 7.16874 28.9948 7.36974C29.1596 7.57073 29.2498 7.82263 29.25 8.08261V28.3259C29.2498 28.5858 29.1596 28.8377 28.9948 29.0387C28.8299 29.2397 28.6004 29.3774 28.3455 29.4284L17.0955 31.6784C16.9323 31.711 16.764 31.707 16.6026 31.6667C16.4411 31.6264 16.2907 31.5508 16.162 31.4454C16.0333 31.3399 15.9296 31.2072 15.8583 31.0569C15.7871 30.9065 15.7501 30.7422 15.75 30.5759V5.83261L16.1618 4.96186ZM22.5 18.2031C22.5 17.9047 22.3815 17.6186 22.1705 17.4076C21.9595 17.1966 21.6734 17.0781 21.375 17.0781C21.0766 17.0781 20.7905 17.1966 20.5795 17.4076C20.3685 17.6186 20.25 17.9047 20.25 18.2031C20.25 18.5015 20.3685 18.7876 20.5795 18.9986C20.7905 19.2096 21.0766 19.3281 21.375 19.3281C21.6734 19.3281 21.9595 19.2096 22.1705 18.9986C22.3815 18.7876 22.5 18.5015 22.5 18.2031Z" fill="#109ED9"/>
<path d="M13.5 6.95801H7.875C7.57663 6.95801 7.29048 7.07653 7.07951 7.28751C6.86853 7.49849 6.75 7.78464 6.75 8.08301V28.3263C6.75 28.6246 6.86853 28.9108 7.07951 29.1218C7.29048 29.3327 7.57663 29.4513 7.875 29.4513H13.5V6.95801Z" fill="#109ED9"/>
<path d="M16.1618 4.96289C16.0329 5.0685 15.9292 5.20139 15.858 5.35197C15.7868 5.50255 15.7499 5.66707 15.75 5.83364L16.1618 4.96289Z" fill="#109ED9"/>
</svg>
